<?xml version="1.0" standalone="no"?>
<!DOCTYPE svg PUBLIC "-//W3C//DTD SVG 20010904//EN"
 "http://www.w3.org/TR/2001/REC-SVG-20010904/DTD/svg10.dtd">
<svg version="1.0" xmlns="http://www.w3.org/2000/svg"
 width="360.000000pt" height="360.000000pt" viewBox="0 0 360.000000 360.000000"
 preserveAspectRatio="xMidYMid meet">

<g transform="translate(0.000000,360.000000) scale(0.100000,-0.100000)"
fill="#000000" stroke="none">
<path d="M885 3128 c-171 -23 -333 -176 -389 -367 -9 -31 -16 -91 -16 -138 0
-205 118 -366 293 -398 23 -5 36 -12 34 -19 -27 -69 -78 -307 -97 -449 -45
-339 69 -617 327 -804 35 -25 63 -51 63 -59 0 -31 42 -95 78 -119 51 -34 108
-41 174 -21 41 12 63 13 89 6 175 -51 471 -60 649 -20 120 27 124 27 207 10
54 -12 67 -11 107 4 53 20 101 71 116 123 9 28 25 47 60 71 74 51 203 190 245
266 85 152 115 307 96 499 -12 125 -49 320 -81 427 -11 37 -20 70 -20 72 0 3
17 9 37 13 86 16 185 86 230 162 181 310 -59 746 -412 744 -98 0 -162 -19
-232 -67 -61 -42 -129 -136 -139 -192 -4 -20 -8 -40 -10 -43 -2 -4 -43 8 -91
26 -94 36 -220 65 -278 65 -40 0 -43 10 -20 75 8 22 15 41 15 43 0 7 -101 -50
-145 -82 -30 -22 -62 -36 -80 -36 -53 0 -208 -37 -287 -68 -58 -22 -78 -26
-78 -16 0 35 -46 128 -85 171 -86 97 -217 141 -360 121z m180 -97 c23 -7 11
-9 -57 -10 -61 -1 -103 -7 -140 -21 -59 -22 -141 -89 -193 -158 -42 -55 -45
-45 -6 23 33 58 101 129 144 151 62 32 172 39 252 15z m1732 -11 c56 -25 121
-92 161 -166 40 -78 41 -91 1 -31 -16 25 -57 71 -89 101 -77 71 -143 96 -252
96 -89 0 -96 7 -21 20 63 11 148 3 200 -20z m-757 -157 c102 -20 212 -64 311
-123 86 -52 110 -57 184 -40 22 5 42 7 44 4 3 -2 -11 -20 -29 -39 l-34 -35 36
0 c20 0 72 7 115 15 43 8 81 15 86 15 13 0 -23 -63 -57 -99 l-31 -33 73 4 c49
2 72 0 72 -8 0 -18 -56 -90 -89 -113 -29 -21 -30 -24 -17 -49 26 -51 83 -227
109 -337 90 -381 73 -614 -57 -814 -130 -199 -374 -347 -679 -413 -134 -28
-379 -31 -509 -5 -250 50 -458 154 -603 301 -82 84 -135 170 -172 281 -25 74
-27 93 -28 245 0 141 4 185 27 301 29 143 84 326 124 417 13 30 24 56 24 57 0
2 -16 13 -35 25 -35 22 -85 84 -85 106 0 8 13 9 48 2 26 -5 57 -6 70 -3 23 6
22 7 -16 50 -37 42 -59 85 -44 85 4 0 45 -7 92 -15 47 -8 98 -15 115 -15 l29
0 -32 29 c-34 32 -43 57 -16 47 9 -3 40 -9 69 -12 48 -6 57 -4 100 26 113 78
295 143 450 160 91 11 260 3 355 -17z"/>
<path d="M1315 2286 c-166 -77 -354 -299 -436 -510 -62 -161 -30 -255 106
-318 43 -20 66 -23 160 -23 99 0 116 3 168 27 34 16 80 50 112 83 162 166 227
530 122 686 -54 80 -137 100 -232 55z m96 -289 c76 -40 105 -124 83 -236 l-7
-32 -26 53 c-63 126 -219 130 -281 8 -55 -108 8 -231 127 -249 46 -6 47 -7 25
-20 -28 -15 -116 -17 -153 -3 -41 16 -91 63 -110 107 -35 76 -17 182 44 268
81 114 200 155 298 104z m7 -229 c21 -21 14 -57 -13 -70 -22 -10 -29 -9 -47
10 -19 18 -20 25 -10 47 13 27 49 34 70 13z"/>
<path d="M2138 2285 c-144 -98 -124 -485 37 -701 85 -113 188 -159 334 -152
144 8 245 70 271 168 35 130 -147 452 -343 609 -130 103 -224 127 -299 76z
m288 -300 c149 -87 204 -306 105 -419 -45 -51 -158 -74 -226 -45 l-30 12 40 7
c93 14 155 79 155 162 0 133 -123 217 -230 157 -41 -23 -80 -73 -80 -103 0 -9
-4 -16 -9 -16 -15 0 -23 105 -12 148 33 120 168 166 287 97z m-16 -220 c15
-19 6 -61 -16 -69 -27 -10 -53 3 -60 30 -8 30 11 54 41 54 12 0 28 -7 35 -15z"/>
<path d="M1760 1694 c-113 -20 -167 -61 -156 -118 8 -38 41 -74 85 -93 19 -8
43 -26 53 -39 11 -13 26 -24 34 -24 34 0 28 -108 -8 -147 -60 -64 -153 -50
-236 35 -58 59 -77 61 -47 7 30 -57 121 -115 180 -115 20 0 25 -5 25 -25 0
-39 27 -83 60 -100 84 -44 200 13 200 98 0 20 6 25 36 30 19 3 56 18 80 32 52
31 110 103 94 119 -7 7 -22 -4 -46 -32 -82 -96 -215 -116 -263 -40 -7 11 -15
44 -18 73 -5 52 -5 54 26 69 17 9 31 21 31 26 0 5 19 18 43 28 50 22 97 74 97
107 0 34 -46 83 -88 94 -46 12 -149 21 -182 15z m191 -40 c18 -11 34 -25 37
-33 3 -8 -9 -3 -28 10 -29 22 -41 24 -148 24 -77 0 -125 -4 -139 -13 -13 -7
-23 -10 -23 -8 0 8 42 29 75 37 53 14 191 3 226 -17z m-53 -488 c16 -16 15
-19 -11 -42 -37 -32 -101 -33 -134 -2 -13 12 -23 27 -23 33 0 36 135 45 168
11z"/>
</g>
</svg>
